<svg width="32" height="32" viewBox="0 0 32 32" fill="none" xmlns="http://www.w3.org/2000/svg">
<path d="M16 8.33332C16.5523 8.33332 17 8.78104 17 9.33332V17.3333C17 17.8856 16.5523 18.3333 16 18.3333C15.4477 18.3333 15 17.8856 15 17.3333V9.33332C15 8.78104 15.4477 8.33332 16 8.33332Z" fill="#0A84FF"/>
<path d="M16 22.6667C16.7364 22.6667 17.3333 22.0697 17.3333 21.3333C17.3333 20.5969 16.7364 20 16 20C15.2636 20 14.6667 20.5969 14.6667 21.3333C14.6667 22.0697 15.2636 22.6667 16 22.6667Z" fill="#0A84FF"/>
<path fill-rule="evenodd" clip-rule="evenodd" d="M1.66667 16C1.66667 8.08391 8.08392 1.66666 16 1.66666C23.9161 1.66666 30.3333 8.08391 30.3333 16C30.3333 23.9161 23.9161 30.3333 16 30.3333C8.08392 30.3333 1.66667 23.9161 1.66667 16ZM16 3.66666C9.18849 3.66666 3.66667 9.18848 3.66667 16C3.66667 22.8115 9.18849 28.3333 16 28.3333C22.8115 28.3333 28.3333 22.8115 28.3333 16C28.3333 9.18848 22.8115 3.66666 16 3.66666Z" fill="#0A84FF"/>
</svg>
