<svg width="11" height="19" viewBox="0 0 11 19" fill="none" xmlns="http://www.w3.org/2000/svg">
<path d="M9.99805 9.06445C9.99805 9.20117 9.9707 9.33105 9.91602 9.4541C9.86589 9.57259 9.78385 9.68652 9.66992 9.7959L4.41309 14.9434C4.23535 15.1165 4.01888 15.2031 3.76367 15.2031C3.59961 15.2031 3.44694 15.1621 3.30566 15.0801C3.16439 14.998 3.05046 14.8887 2.96387 14.752C2.88184 14.6152 2.84082 14.4603 2.84082 14.2871C2.84082 14.0365 2.93652 13.8132 3.12793 13.6172L7.81055 9.06445L3.12793 4.51172C2.93652 4.32031 2.84082 4.09701 2.84082 3.8418C2.84082 3.67318 2.88184 3.52051 2.96387 3.38379C3.05046 3.24251 3.16439 3.13086 3.30566 3.04883C3.44694 2.9668 3.59961 2.92578 3.76367 2.92578C4.01888 2.92578 4.23535 3.01237 4.41309 3.18555L9.66992 8.33301C9.7793 8.44238 9.86133 8.55632 9.91602 8.6748C9.9707 8.79329 9.99805 8.92318 9.99805 9.06445Z" fill="#464649"/>
</svg>
