<svg width="80" height="80" viewBox="0 0 80 80" fill="none" xmlns="http://www.w3.org/2000/svg">
<path d="M50.88 4C58.08 4 61.68 4 65.6 5.2C69.84 6.72 73.2 10.08 74.72 14.32C76 18.24 76 21.92 76 29.12V50.88C76 58.08 76 61.68 74.8 65.6C73.28 69.84 69.92 73.2 65.68 74.72C61.68 76 58.08 76 50.88 76H29.12C21.92 76 18.32 76 14.4 74.8C10.08 73.2 6.8 69.92 5.2 65.6C4 61.76 4 58.16 4 50.88V29.12C4 21.92 4 18.32 5.2 14.4C6.8 10.16 10.08 6.8 14.4 5.28C18.24 4 21.84 4 29.12 4H50.88Z" fill="url(#paint0_linear_1_318)"/>
<path d="M40 71.2C57.2313 71.2 71.2 57.2313 71.2 40C71.2 22.7687 57.2313 8.79999 40 8.79999C22.7687 8.79999 8.8 22.7687 8.8 40C8.8 57.2313 22.7687 71.2 40 71.2Z" fill="#2E2E30"/>
<path d="M42.1006 23.3932C42.1798 23.4044 42.259 23.4155 42.3383 23.4266C42.4967 23.4489 42.7344 23.4823 42.8928 23.5046L43.7591 21.3643C44.0178 20.6736 44.1651 20.7751 44.1552 21.42L44.0811 23.6716C44.3188 23.705 44.6246 23.8287 44.8622 23.8621L45.955 21.8345C46.2818 21.2341 46.4402 21.2564 46.34 21.9694L45.9491 24.1764C46.1756 24.2891 46.4813 24.4128 46.719 24.4462L48.0272 22.6104C48.4332 22.0212 48.5805 22.1227 48.4011 22.8245L47.7724 24.9982C47.999 25.1108 48.3047 25.2346 48.5201 25.4264L49.9756 23.6921C50.4497 23.1932 50.597 23.2947 50.3495 23.9062L49.4832 26.0465C49.6986 26.2383 49.9251 26.351 50.1405 26.5428L51.8114 25.0003C52.3647 24.5126 52.512 24.6141 52.1741 25.2937L51.0924 27.2421C51.3078 27.4339 51.5232 27.6258 51.6594 27.8065L53.5346 26.5351C54.0767 26.1266 54.2241 26.2281 53.8181 26.8173L52.4084 28.8004C52.6238 28.9923 52.76 29.173 52.9642 29.444L54.9644 28.4326C55.5747 28.1144 55.722 28.2159 55.2368 28.794L53.7132 30.4379C53.8494 30.6186 54.0536 30.8897 54.1787 31.1496L56.3151 30.3189C56.9934 30.0911 57.0503 30.2606 56.5082 30.6692L54.7692 32.1213C54.8942 32.3812 55.0193 32.6411 55.1443 32.9011L57.3265 32.3191C57.9937 32.1705 58.0507 32.3401 57.5197 32.6694L55.6445 33.9408C55.7695 34.2007 55.8153 34.4495 55.9404 34.7095L58.1684 34.3763C58.8245 34.3069 58.9606 34.4877 58.2712 34.7947L56.271 35.8062C56.3168 36.055 56.4418 36.3149 56.4765 36.6429L58.66 36.6266C59.3841 36.6476 59.3619 36.8061 58.7628 37.045L56.7167 37.8077C56.7626 38.0565 56.7972 38.3845 56.8431 38.6333L59.0724 38.8658C59.7854 38.966 59.7631 39.1245 59.096 39.2731L56.9249 39.7758C56.9707 40.0246 56.9261 40.3415 56.8927 40.5791L58.9983 41.1174C59.7002 41.2968 59.6779 41.4553 58.9427 41.5135L56.7257 41.7675C56.6923 42.0051 56.6478 42.322 56.6144 42.5597C56.6144 42.5597 56.6144 42.5597 56.6033 42.6389L58.6866 43.3356C59.3773 43.5943 59.355 43.7527 58.6309 43.7317L56.4474 43.748C56.4029 44.0649 56.2902 44.2914 56.2457 44.6083L58.2052 45.6108C58.8056 45.9375 58.7833 46.0959 58.0704 45.9957L55.9314 45.6951C55.8188 45.9217 55.7742 46.2385 55.6616 46.4651L57.5085 47.6941C58.0978 48.1 57.9963 48.2473 57.3736 48.0791L55.2681 47.5408C55.1554 47.7673 55.0317 48.0731 54.9191 48.2996L56.5741 49.744C57.073 50.218 57.0507 50.3765 56.36 50.1178L54.3671 49.353C54.1752 49.5684 54.0515 49.8742 53.8596 50.0896L55.334 51.6701C55.8329 52.1442 55.7203 52.3707 55.0407 52.0328L53.0464 50.7024C52.8546 50.9177 52.6627 51.1331 52.4709 51.3485L53.7646 53.0653C54.1731 53.6074 54.0716 53.7547 53.4824 53.3488L51.7146 52.1309C51.5228 52.3463 51.331 52.5617 51.071 52.6867L52.184 54.5397C52.5022 55.1499 52.4007 55.2972 51.8226 54.812L50.1675 53.3676C49.8964 53.5719 49.7157 53.7081 49.4558 53.8331L50.3088 55.8111C50.6158 56.5005 50.4462 56.5575 49.9585 56.0042L48.4841 54.4236C48.2242 54.5487 47.9643 54.6737 47.7043 54.7987L48.2974 56.9018C48.5252 57.5801 48.3557 57.637 47.9471 57.0949L46.7438 55.31C46.4839 55.4351 46.224 55.5601 45.8848 55.674L46.2291 57.8229C46.3777 58.49 46.2081 58.547 45.8107 57.9256L44.7881 56.0046C44.5393 56.0504 44.2002 56.1643 43.9514 56.2102L44.058 58.3256C44.1162 59.0609 43.8786 59.0275 43.6396 58.4284L42.8436 56.62C42.5948 56.6658 42.2667 56.7005 42.0179 56.7463L41.8758 58.9075C41.8548 59.6317 41.6171 59.5983 41.4685 58.9311L40.8754 56.8281C40.6266 56.8739 40.3098 56.8294 39.9817 56.8641L39.5227 58.9808C39.4225 59.6938 39.1848 59.6604 39.1154 59.0043L38.9407 56.7985C38.6238 56.754 38.3862 56.7206 38.0582 56.7553L37.3614 58.8386C37.1028 59.5293 36.9443 59.5071 36.9653 58.7829L36.9491 56.5994C36.6322 56.5549 36.3945 56.5215 36.0888 56.3977L35.1655 58.3684C34.918 58.9799 34.6803 58.9465 34.7805 58.2335L35.0019 56.0834C34.6962 55.9597 34.4585 55.9263 34.232 55.8136L33.003 57.6606C32.6762 58.2609 32.4386 58.2275 32.618 57.5257L33.0771 55.409C32.8505 55.2963 32.5448 55.1726 32.3182 55.06L30.9419 56.8054C30.536 57.3946 30.3094 57.282 30.5681 56.5913L31.2648 54.508C31.0383 54.3953 30.8229 54.2035 30.5171 54.0797L28.9254 55.6333C28.4514 56.1322 28.3041 56.0307 28.5516 55.4192L29.5541 53.4597C29.3387 53.2678 29.1233 53.076 28.8967 52.9634L27.1688 54.3363C26.6267 54.7448 26.4794 54.6433 26.8854 54.0541L28.1144 52.2071C27.899 52.0153 27.6836 51.8234 27.5585 51.5635L25.7279 52.518C25.1065 52.9154 24.9703 52.7347 25.4444 52.2358L26.8207 50.4904C26.6053 50.2985 26.4803 50.0386 26.3441 49.8579L24.355 50.7901C23.7448 51.1083 23.6086 50.9276 24.0826 50.4287L25.6743 48.8751C25.5493 48.6152 25.4131 48.4345 25.2881 48.1745L23.1739 48.8469C22.4956 49.0747 22.4387 48.9051 22.9808 48.4966L24.7879 47.1348C24.6629 46.8749 24.5378 46.6149 24.492 46.3661L22.3321 46.7897C21.6649 46.9383 21.6079 46.7687 22.2293 46.3713L24.1614 45.2695C24.0364 45.0095 23.9906 44.7607 23.9448 44.5119L21.5805 44.6644C20.8453 44.7226 20.7883 44.553 21.4778 44.246L23.5349 43.4041C23.4891 43.1553 23.4544 42.8273 23.4086 42.5785L21.157 42.5044C20.4329 42.4834 20.4552 42.325 21.1335 42.0972L23.2476 41.4249C23.2018 41.1761 23.2463 40.8592 23.2005 40.6104L20.9934 40.2194C20.2804 40.1192 20.3138 39.8815 20.9699 39.8122L23.2091 39.3998C23.2425 39.1621 23.2078 38.8341 23.2412 38.5965L21.0675 37.9678C20.3657 37.7884 20.3991 37.5507 21.1232 37.5717L23.3971 37.4873C23.4305 37.2497 23.475 36.9328 23.5084 36.6951L21.4474 35.84C20.8358 35.5925 20.8693 35.3548 21.5822 35.455L23.8227 35.6083C23.8561 35.3706 23.9799 35.0649 24.0925 34.8384L22.1441 33.7567C21.5437 33.4299 21.566 33.2715 22.279 33.3717L24.486 33.7627C24.5987 33.5361 24.7224 33.2304 24.835 33.0038L22.9992 31.6956C22.41 31.2897 22.5115 31.1424 23.2133 31.3218L25.3759 32.0296C25.4885 31.8031 25.6803 31.5877 25.793 31.3612L24.149 29.8376C23.6501 29.3635 23.7516 29.2162 24.3631 29.4637L26.413 30.3981C26.6049 30.1827 26.7175 29.9562 26.9094 29.7408L25.4572 28.0018C24.9695 27.4485 25.1502 27.3123 25.7394 27.7183L27.6767 28.8792C27.8686 28.6638 28.0493 28.5276 28.2411 28.3122L26.9809 26.3578C26.5835 25.7365 26.7531 25.6795 27.2631 26.0743L29.0877 27.4618C29.2796 27.2464 29.5395 27.1213 29.7313 26.9059L28.7533 24.668C28.4351 24.0578 28.6158 23.9216 29.1147 24.3957L30.7475 25.9985C30.9282 25.8624 31.1882 25.7373 31.4481 25.6123L30.6966 23.487C30.4688 22.8087 30.6383 22.7517 31.0469 23.2939L32.4878 25.1121C32.7478 24.9871 33.0077 24.862 33.1884 24.7258L32.6968 22.4755C32.5482 21.8084 32.7178 21.7514 33.1263 22.2935L34.3074 24.2368C34.5673 24.1118 34.8161 24.066 35.0649 24.0201L34.8221 21.724C34.7638 20.9887 34.9334 20.9318 35.2405 21.6212L36.1616 23.6895C36.4104 23.6437 36.6592 23.5979 36.908 23.5521L36.982 21.3005C37.003 20.5764 37.1615 20.5986 37.3893 21.2769L38.0505 23.4703C38.2993 23.4245 38.6273 23.3898 38.8649 23.4232L39.1878 21.1258C39.288 20.4128 39.4465 20.435 39.5951 21.1022L40.0867 23.3525C40.3243 23.3859 40.6523 23.3513 40.89 23.3847L41.4394 21.1999C41.6188 20.498 41.7773 20.5203 41.8355 21.2555L42.1006 23.3932ZM38.0851 53.6892C45.6112 54.7469 52.5685 49.5042 53.6262 41.9781C54.684 34.4521 49.4412 27.4947 41.9152 26.437C34.3891 25.3793 27.3637 30.5317 26.306 38.0577C25.2483 45.5838 30.5591 52.6315 38.0851 53.6892Z" fill="black"/>
<path d="M42.1006 23.3932C42.1798 23.4044 42.259 23.4155 42.3383 23.4266C42.4967 23.4489 42.7344 23.4823 42.8928 23.5046L43.7591 21.3643C44.0178 20.6736 44.1651 20.7751 44.1552 21.42L44.0811 23.6716C44.3188 23.705 44.6246 23.8287 44.8622 23.8621L45.955 21.8345C46.2818 21.2341 46.4402 21.2564 46.34 21.9694L45.9491 24.1764C46.1756 24.2891 46.4813 24.4128 46.719 24.4462L48.0272 22.6104C48.4332 22.0212 48.5805 22.1227 48.4011 22.8245L47.7724 24.9982C47.999 25.1108 48.3047 25.2346 48.5201 25.4264L49.9756 23.6921C50.4497 23.1932 50.597 23.2947 50.3495 23.9062L49.4832 26.0465C49.6986 26.2383 49.9251 26.351 50.1405 26.5428L51.8114 25.0003C52.3647 24.5126 52.512 24.6141 52.1741 25.2937L51.0924 27.2421C51.3078 27.4339 51.5232 27.6258 51.6594 27.8065L53.5346 26.5351C54.0767 26.1266 54.2241 26.2281 53.8181 26.8173L52.4084 28.8004C52.6238 28.9923 52.76 29.173 52.9642 29.444L54.9644 28.4326C55.5747 28.1144 55.722 28.2159 55.2368 28.794L53.7132 30.4379C53.8494 30.6186 54.0536 30.8897 54.1787 31.1496L56.3151 30.3189C56.9934 30.0911 57.0503 30.2606 56.5082 30.6692L54.7692 32.1213C54.8942 32.3812 55.0193 32.6411 55.1443 32.9011L57.3265 32.3191C57.9937 32.1705 58.0507 32.3401 57.5197 32.6694L55.6445 33.9408C55.7695 34.2007 55.8153 34.4495 55.9404 34.7095L58.1684 34.3763C58.8245 34.3069 58.9606 34.4877 58.2712 34.7947L56.271 35.8062C56.3168 36.055 56.4418 36.3149 56.4765 36.6429L58.66 36.6266C59.3841 36.6476 59.3619 36.8061 58.7628 37.045L56.7167 37.8077C56.7626 38.0565 56.7972 38.3845 56.8431 38.6333L59.0724 38.8658C59.7854 38.966 59.7631 39.1245 59.096 39.2731L56.9249 39.7758C56.9707 40.0246 56.9261 40.3415 56.8927 40.5791L58.9983 41.1174C59.7002 41.2968 59.6779 41.4553 58.9427 41.5135L56.7257 41.7675C56.6923 42.0051 56.6478 42.322 56.6144 42.5597C56.6144 42.5597 56.6144 42.5597 56.6033 42.6389L58.6866 43.3356C59.3773 43.5943 59.355 43.7527 58.6309 43.7317L56.4474 43.748C56.4029 44.0649 56.2902 44.2914 56.2457 44.6083L58.2052 45.6108C58.8056 45.9375 58.7833 46.0959 58.0704 45.9957L55.9314 45.6951C55.8188 45.9217 55.7742 46.2385 55.6616 46.4651L57.5085 47.6941C58.0978 48.1 57.9963 48.2473 57.3736 48.0791L55.2681 47.5408C55.1554 47.7673 55.0317 48.0731 54.9191 48.2996L56.5741 49.744C57.073 50.218 57.0507 50.3765 56.36 50.1178L54.3671 49.353C54.1752 49.5684 54.0515 49.8742 53.8596 50.0896L55.334 51.6701C55.8329 52.1442 55.7203 52.3707 55.0407 52.0328L53.0464 50.7024C52.8546 50.9177 52.6627 51.1331 52.4709 51.3485L53.7646 53.0653C54.1731 53.6074 54.0716 53.7547 53.4824 53.3488L51.7146 52.1309C51.5228 52.3463 51.331 52.5617 51.071 52.6867L52.184 54.5397C52.5022 55.1499 52.4007 55.2972 51.8226 54.812L50.1675 53.3676C49.8964 53.5719 49.7157 53.7081 49.4558 53.8331L50.3088 55.8111C50.6158 56.5005 50.4462 56.5575 49.9585 56.0042L48.4841 54.4236C48.2242 54.5487 47.9643 54.6737 47.7043 54.7987L48.2974 56.9018C48.5252 57.5801 48.3557 57.637 47.9471 57.0949L46.7438 55.31C46.4839 55.4351 46.224 55.5601 45.8848 55.674L46.2291 57.8229C46.3777 58.49 46.2081 58.547 45.8107 57.9256L44.7881 56.0046C44.5393 56.0504 44.2002 56.1643 43.9514 56.2102L44.058 58.3256C44.1162 59.0609 43.8786 59.0275 43.6396 58.4284L42.8436 56.62C42.5948 56.6658 42.2667 56.7005 42.0179 56.7463L41.8758 58.9075C41.8548 59.6317 41.6171 59.5983 41.4685 58.9311L40.8754 56.8281C40.6266 56.8739 40.3098 56.8294 39.9817 56.8641L39.5227 58.9808C39.4225 59.6938 39.1848 59.6604 39.1154 59.0043L38.9407 56.7985C38.6238 56.754 38.3862 56.7206 38.0582 56.7553L37.3614 58.8386C37.1028 59.5293 36.9443 59.5071 36.9653 58.7829L36.9491 56.5994C36.6322 56.5549 36.3945 56.5215 36.0888 56.3977L35.1655 58.3684C34.918 58.9799 34.6803 58.9465 34.7805 58.2335L35.0019 56.0834C34.6962 55.9597 34.4585 55.9263 34.232 55.8136L33.003 57.6606C32.6762 58.2609 32.4386 58.2275 32.618 57.5257L33.0771 55.409C32.8505 55.2963 32.5448 55.1726 32.3182 55.06L30.9419 56.8054C30.536 57.3946 30.3094 57.282 30.5681 56.5913L31.2648 54.508C31.0383 54.3953 30.8229 54.2035 30.5171 54.0797L28.9254 55.6333C28.4514 56.1322 28.3041 56.0307 28.5516 55.4192L29.5541 53.4597C29.3387 53.2678 29.1233 53.076 28.8967 52.9634L27.1688 54.3363C26.6267 54.7448 26.4794 54.6433 26.8854 54.0541L28.1144 52.2071C27.899 52.0153 27.6836 51.8234 27.5585 51.5635L25.7279 52.518C25.1065 52.9154 24.9703 52.7347 25.4444 52.2358L26.8207 50.4904C26.6053 50.2985 26.4803 50.0386 26.3441 49.8579L24.355 50.7901C23.7448 51.1083 23.6086 50.9276 24.0826 50.4287L25.6743 48.8751C25.5493 48.6152 25.4131 48.4345 25.2881 48.1745L23.1739 48.8469C22.4956 49.0747 22.4387 48.9051 22.9808 48.4966L24.7879 47.1348C24.6629 46.8749 24.5378 46.6149 24.492 46.3661L22.3321 46.7897C21.6649 46.9383 21.6079 46.7687 22.2293 46.3713L24.1614 45.2695C24.0364 45.0095 23.9906 44.7607 23.9448 44.5119L21.5805 44.6644C20.8453 44.7226 20.7883 44.553 21.4778 44.246L23.5349 43.4041C23.4891 43.1553 23.4544 42.8273 23.4086 42.5785L21.157 42.5044C20.4329 42.4834 20.4552 42.325 21.1335 42.0972L23.2476 41.4249C23.2018 41.1761 23.2463 40.8592 23.2005 40.6104L20.9934 40.2194C20.2804 40.1192 20.3138 39.8815 20.9699 39.8122L23.2091 39.3998C23.2425 39.1621 23.2078 38.8341 23.2412 38.5965L21.0675 37.9678C20.3657 37.7884 20.3991 37.5507 21.1232 37.5717L23.3971 37.4873C23.4305 37.2497 23.475 36.9328 23.5084 36.6951L21.4474 35.84C20.8358 35.5925 20.8693 35.3548 21.5822 35.455L23.8227 35.6083C23.8561 35.3706 23.9799 35.0649 24.0925 34.8384L22.1441 33.7567C21.5437 33.4299 21.566 33.2715 22.279 33.3717L24.486 33.7627C24.5987 33.5361 24.7224 33.2304 24.835 33.0038L22.9992 31.6956C22.41 31.2897 22.5115 31.1424 23.2133 31.3218L25.3759 32.0296C25.4885 31.8031 25.6803 31.5877 25.793 31.3612L24.149 29.8376C23.6501 29.3635 23.7516 29.2162 24.3631 29.4637L26.413 30.3981C26.6049 30.1827 26.7175 29.9562 26.9094 29.7408L25.4572 28.0018C24.9695 27.4485 25.1502 27.3123 25.7394 27.7183L27.6767 28.8792C27.8686 28.6638 28.0493 28.5276 28.2411 28.3122L26.9809 26.3578C26.5835 25.7365 26.7531 25.6795 27.2631 26.0743L29.0877 27.4618C29.2796 27.2464 29.5395 27.1213 29.7313 26.9059L28.7533 24.668C28.4351 24.0578 28.6158 23.9216 29.1147 24.3957L30.7475 25.9985C30.9282 25.8624 31.1882 25.7373 31.4481 25.6123L30.6966 23.487C30.4688 22.8087 30.6383 22.7517 31.0469 23.2939L32.4878 25.1121C32.7478 24.9871 33.0077 24.862 33.1884 24.7258L32.6968 22.4755C32.5482 21.8084 32.7178 21.7514 33.1263 22.2935L34.3074 24.2368C34.5673 24.1118 34.8161 24.066 35.0649 24.0201L34.8221 21.724C34.7638 20.9887 34.9334 20.9318 35.2405 21.6212L36.1616 23.6895C36.4104 23.6437 36.6592 23.5979 36.908 23.5521L36.982 21.3005C37.003 20.5764 37.1615 20.5986 37.3893 21.2769L38.0505 23.4703C38.2993 23.4245 38.6273 23.3898 38.8649 23.4232L39.1878 21.1258C39.288 20.4128 39.4465 20.435 39.5951 21.1022L40.0867 23.3525C40.3243 23.3859 40.6523 23.3513 40.89 23.3847L41.4394 21.1999C41.6188 20.498 41.7773 20.5203 41.8355 21.2555L42.1006 23.3932ZM38.0851 53.6892C45.6112 54.7469 52.5685 49.5042 53.6262 41.9781C54.684 34.4521 49.4412 27.4947 41.9152 26.437C34.3891 25.3793 27.3637 30.5317 26.306 38.0577C25.2483 45.5838 30.5591 52.6315 38.0851 53.6892Z" fill="#7F7F7F"/>
<path d="M42.1006 23.3932C42.1798 23.4044 42.259 23.4155 42.3383 23.4266C42.4967 23.4489 42.7344 23.4823 42.8928 23.5046L43.7591 21.3643C44.0178 20.6736 44.1651 20.7751 44.1552 21.42L44.0811 23.6716C44.3188 23.705 44.6246 23.8287 44.8622 23.8621L45.955 21.8345C46.2818 21.2341 46.4402 21.2564 46.34 21.9694L45.9491 24.1764C46.1756 24.2891 46.4813 24.4128 46.719 24.4462L48.0272 22.6104C48.4332 22.0212 48.5805 22.1227 48.4011 22.8245L47.7724 24.9982C47.999 25.1108 48.3047 25.2346 48.5201 25.4264L49.9756 23.6921C50.4497 23.1932 50.597 23.2947 50.3495 23.9062L49.4832 26.0465C49.6986 26.2383 49.9251 26.351 50.1405 26.5428L51.8114 25.0003C52.3647 24.5126 52.512 24.6141 52.1741 25.2937L51.0924 27.2421C51.3078 27.4339 51.5232 27.6258 51.6594 27.8065L53.5346 26.5351C54.0767 26.1266 54.2241 26.2281 53.8181 26.8173L52.4084 28.8004C52.6238 28.9923 52.76 29.173 52.9642 29.444L54.9644 28.4326C55.5747 28.1144 55.722 28.2159 55.2368 28.794L53.7132 30.4379C53.8494 30.6186 54.0536 30.8897 54.1787 31.1496L56.3151 30.3189C56.9934 30.0911 57.0503 30.2606 56.5082 30.6692L54.7692 32.1213C54.8942 32.3812 55.0193 32.6411 55.1443 32.9011L57.3265 32.3191C57.9937 32.1705 58.0507 32.3401 57.5197 32.6694L55.6445 33.9408C55.7695 34.2007 55.8153 34.4495 55.9404 34.7095L58.1684 34.3763C58.8245 34.3069 58.9606 34.4877 58.2712 34.7947L56.271 35.8062C56.3168 36.055 56.4418 36.3149 56.4765 36.6429L58.66 36.6266C59.3841 36.6476 59.3619 36.8061 58.7628 37.045L56.7167 37.8077C56.7626 38.0565 56.7972 38.3845 56.8431 38.6333L59.0724 38.8658C59.7854 38.966 59.7631 39.1245 59.096 39.2731L56.9249 39.7758C56.9707 40.0246 56.9261 40.3415 56.8927 40.5791L58.9983 41.1174C59.7002 41.2968 59.6779 41.4553 58.9427 41.5135L56.7257 41.7675C56.6923 42.0051 56.6478 42.322 56.6144 42.5597C56.6144 42.5597 56.6144 42.5597 56.6033 42.6389L58.6866 43.3356C59.3773 43.5943 59.355 43.7527 58.6309 43.7317L56.4474 43.748C56.4029 44.0649 56.2902 44.2914 56.2457 44.6083L58.2052 45.6108C58.8056 45.9375 58.7833 46.0959 58.0704 45.9957L55.9314 45.6951C55.8188 45.9217 55.7742 46.2385 55.6616 46.4651L57.5085 47.6941C58.0978 48.1 57.9963 48.2473 57.3736 48.0791L55.2681 47.5408C55.1554 47.7673 55.0317 48.0731 54.9191 48.2996L56.5741 49.744C57.073 50.218 57.0507 50.3765 56.36 50.1178L54.3671 49.353C54.1752 49.5684 54.0515 49.8742 53.8596 50.0896L55.334 51.6701C55.8329 52.1442 55.7203 52.3707 55.0407 52.0328L53.0464 50.7024C52.8546 50.9177 52.6627 51.1331 52.4709 51.3485L53.7646 53.0653C54.1731 53.6074 54.0716 53.7547 53.4824 53.3488L51.7146 52.1309C51.5228 52.3463 51.331 52.5617 51.071 52.6867L52.184 54.5397C52.5022 55.1499 52.4007 55.2972 51.8226 54.812L50.1675 53.3676C49.8964 53.5719 49.7157 53.7081 49.4558 53.8331L50.3088 55.8111C50.6158 56.5005 50.4462 56.5575 49.9585 56.0042L48.4841 54.4236C48.2242 54.5487 47.9643 54.6737 47.7043 54.7987L48.2974 56.9018C48.5252 57.5801 48.3557 57.637 47.9471 57.0949L46.7438 55.31C46.4839 55.4351 46.224 55.5601 45.8848 55.674L46.2291 57.8229C46.3777 58.49 46.2081 58.547 45.8107 57.9256L44.7881 56.0046C44.5393 56.0504 44.2002 56.1643 43.9514 56.2102L44.058 58.3256C44.1162 59.0609 43.8786 59.0275 43.6396 58.4284L42.8436 56.62C42.5948 56.6658 42.2667 56.7005 42.0179 56.7463L41.8758 58.9075C41.8548 59.6317 41.6171 59.5983 41.4685 58.9311L40.8754 56.8281C40.6266 56.8739 40.3098 56.8294 39.9817 56.8641L39.5227 58.9808C39.4225 59.6938 39.1848 59.6604 39.1154 59.0043L38.9407 56.7985C38.6238 56.754 38.3862 56.7206 38.0582 56.7553L37.3614 58.8386C37.1028 59.5293 36.9443 59.5071 36.9653 58.7829L36.9491 56.5994C36.6322 56.5549 36.3945 56.5215 36.0888 56.3977L35.1655 58.3684C34.918 58.9799 34.6803 58.9465 34.7805 58.2335L35.0019 56.0834C34.6962 55.9597 34.4585 55.9263 34.232 55.8136L33.003 57.6606C32.6762 58.2609 32.4386 58.2275 32.618 57.5257L33.0771 55.409C32.8505 55.2963 32.5448 55.1726 32.3182 55.06L30.9419 56.8054C30.536 57.3946 30.3094 57.282 30.5681 56.5913L31.2648 54.508C31.0383 54.3953 30.8229 54.2035 30.5171 54.0797L28.9254 55.6333C28.4514 56.1322 28.3041 56.0307 28.5516 55.4192L29.5541 53.4597C29.3387 53.2678 29.1233 53.076 28.8967 52.9634L27.1688 54.3363C26.6267 54.7448 26.4794 54.6433 26.8854 54.0541L28.1144 52.2071C27.899 52.0153 27.6836 51.8234 27.5585 51.5635L25.7279 52.518C25.1065 52.9154 24.9703 52.7347 25.4444 52.2358L26.8207 50.4904C26.6053 50.2985 26.4803 50.0386 26.3441 49.8579L24.355 50.7901C23.7448 51.1083 23.6086 50.9276 24.0826 50.4287L25.6743 48.8751C25.5493 48.6152 25.4131 48.4345 25.2881 48.1745L23.1739 48.8469C22.4956 49.0747 22.4387 48.9051 22.9808 48.4966L24.7879 47.1348C24.6629 46.8749 24.5378 46.6149 24.492 46.3661L22.3321 46.7897C21.6649 46.9383 21.6079 46.7687 22.2293 46.3713L24.1614 45.2695C24.0364 45.0095 23.9906 44.7607 23.9448 44.5119L21.5805 44.6644C20.8453 44.7226 20.7883 44.553 21.4778 44.246L23.5349 43.4041C23.4891 43.1553 23.4544 42.8273 23.4086 42.5785L21.157 42.5044C20.4329 42.4834 20.4552 42.325 21.1335 42.0972L23.2476 41.4249C23.2018 41.1761 23.2463 40.8592 23.2005 40.6104L20.9934 40.2194C20.2804 40.1192 20.3138 39.8815 20.9699 39.8122L23.2091 39.3998C23.2425 39.1621 23.2078 38.8341 23.2412 38.5965L21.0675 37.9678C20.3657 37.7884 20.3991 37.5507 21.1232 37.5717L23.3971 37.4873C23.4305 37.2497 23.475 36.9328 23.5084 36.6951L21.4474 35.84C20.8358 35.5925 20.8693 35.3548 21.5822 35.455L23.8227 35.6083C23.8561 35.3706 23.9799 35.0649 24.0925 34.8384L22.1441 33.7567C21.5437 33.4299 21.566 33.2715 22.279 33.3717L24.486 33.7627C24.5987 33.5361 24.7224 33.2304 24.835 33.0038L22.9992 31.6956C22.41 31.2897 22.5115 31.1424 23.2133 31.3218L25.3759 32.0296C25.4885 31.8031 25.6803 31.5877 25.793 31.3612L24.149 29.8376C23.6501 29.3635 23.7516 29.2162 24.3631 29.4637L26.413 30.3981C26.6049 30.1827 26.7175 29.9562 26.9094 29.7408L25.4572 28.0018C24.9695 27.4485 25.1502 27.3123 25.7394 27.7183L27.6767 28.8792C27.8686 28.6638 28.0493 28.5276 28.2411 28.3122L26.9809 26.3578C26.5835 25.7365 26.7531 25.6795 27.2631 26.0743L29.0877 27.4618C29.2796 27.2464 29.5395 27.1213 29.7313 26.9059L28.7533 24.668C28.4351 24.0578 28.6158 23.9216 29.1147 24.3957L30.7475 25.9985C30.9282 25.8624 31.1882 25.7373 31.4481 25.6123L30.6966 23.487C30.4688 22.8087 30.6383 22.7517 31.0469 23.2939L32.4878 25.1121C32.7478 24.9871 33.0077 24.862 33.1884 24.7258L32.6968 22.4755C32.5482 21.8084 32.7178 21.7514 33.1263 22.2935L34.3074 24.2368C34.5673 24.1118 34.8161 24.066 35.0649 24.0201L34.8221 21.724C34.7638 20.9887 34.9334 20.9318 35.2405 21.6212L36.1616 23.6895C36.4104 23.6437 36.6592 23.5979 36.908 23.5521L36.982 21.3005C37.003 20.5764 37.1615 20.5986 37.3893 21.2769L38.0505 23.4703C38.2993 23.4245 38.6273 23.3898 38.8649 23.4232L39.1878 21.1258C39.288 20.4128 39.4465 20.435 39.5951 21.1022L40.0867 23.3525C40.3243 23.3859 40.6523 23.3513 40.89 23.3847L41.4394 21.1999C41.6188 20.498 41.7773 20.5203 41.8355 21.2555L42.1006 23.3932ZM38.0851 53.6892C45.6112 54.7469 52.5685 49.5042 53.6262 41.9781C54.684 34.4521 49.4412 27.4947 41.9152 26.437C34.3891 25.3793 27.3637 30.5317 26.306 38.0577C25.2483 45.5838 30.5591 52.6315 38.0851 53.6892Z" fill="#777777"/>
<path d="M68.08 41.44C69.12 41.28 69.12 41.04 68.08 40.8L65.12 40.24C65.12 40.16 65.12 40.08 65.12 40C65.12 39.6 65.12 39.2 65.12 38.8L68 38.08C69.04 37.84 68.96 37.52 67.92 37.44L64.96 37.2C64.88 36.72 64.88 36.32 64.8 35.84L67.6 34.8C68.56 34.4 68.56 34.16 67.52 34.16L64.56 34.24C64.48 33.76 64.32 33.36 64.24 32.88L66.88 31.52C67.84 31.04 67.68 30.8 66.72 30.96L63.76 31.44C63.6 31.04 63.44 30.56 63.28 30.16L65.76 28.48C66.64 27.84 66.48 27.6 65.52 27.92L62.64 28.72C62.4 28.32 62.24 27.92 62 27.52L64.24 25.52C65.04 24.8 64.88 24.56 63.92 24.96L61.2 26.08C60.96 25.68 60.64 25.28 60.4 24.96L62.4 22.72C63.12 21.92 62.96 21.76 62 22.24L59.2 23.68C58.88 23.36 58.64 22.96 58.32 22.64L60.08 20.16C60.72 19.28 60.48 19.12 59.6 19.68L57.2 21.44C56.88 21.12 56.56 20.8 56.16 20.56L57.6 17.92C58.08 16.96 57.84 16.8 57.12 17.52L54.96 19.52C54.56 19.28 54.24 18.96 53.84 18.72L54.96 15.92C55.36 14.96 55.12 14.8 54.4 15.6L52.48 17.84C52.08 17.6 51.68 17.44 51.28 17.2L52 14.32C52.24 13.28 52 13.2 51.44 14.08L49.84 16.56C49.44 16.4 48.96 16.24 48.56 16.08L48.96 13.12C49.12 12.08 48.88 12 48.4 12.96L47.04 15.6C46.64 15.44 46.16 15.36 45.68 15.28L45.76 12.32C45.76 11.28 45.52 11.2 45.12 12.24L44.08 15.04C43.6 14.96 43.2 14.88 42.72 14.88L42.24 12C42.16 10.96 41.84 10.96 41.6 11.92L40.88 14.8C40.56 14.8 40.24 14.8 39.92 14.8C39.76 14.8 39.6 14.8 39.52 14.8L38.88 11.84C38.64 10.8 38.4 10.8 38.24 11.84L37.92 14.8C37.44 14.8 37.04 14.88 36.56 14.96L35.52 12.16C35.2 11.2 34.88 11.2 34.88 12.24L34.96 15.2C34.48 15.28 34.08 15.36 33.6 15.52L32.32 12.8C31.84 11.84 31.6 11.92 31.68 12.96L32 15.92C31.6 16.08 31.12 16.24 30.72 16.4L29.12 13.92C28.56 13.04 28.32 13.12 28.56 14.16L29.28 17.04C28.88 17.2 28.48 17.44 28.08 17.68L26.16 15.36C25.52 14.56 25.28 14.72 25.6 15.68L26.64 18.48C26.24 18.72 25.84 18.96 25.52 19.2L23.36 17.12C22.56 16.4 22.4 16.56 22.88 17.52L24.24 20.16C23.92 20.48 23.52 20.72 23.2 21.04L20.8 19.28C19.92 18.64 19.76 18.88 20.32 19.68L22 22.16C21.68 22.48 21.36 22.8 21.04 23.2L18.48 21.68C17.6 21.12 17.36 21.36 18.08 22.16L20 24.4C19.76 24.72 19.44 25.12 19.2 25.52L16.48 24.32C15.52 23.92 15.36 24.16 16.16 24.88L18.4 26.88C18.16 27.28 17.92 27.68 17.76 28.08L14.88 27.28C13.84 26.96 13.76 27.28 14.64 27.84L17.04 29.52C16.88 29.92 16.64 30.32 16.48 30.8L13.52 30.32C12.48 30.16 12.4 30.4 13.28 30.88L15.92 32.32C15.76 32.72 15.68 33.2 15.52 33.6L12.56 33.52C11.52 33.52 11.44 33.76 12.4 34.16L15.2 35.2C15.12 35.68 15.04 36.08 14.96 36.56L12 36.96C10.96 37.04 10.96 37.28 11.92 37.6L14.8 38.4C14.8 38.88 14.72 39.28 14.72 39.76L11.76 40.32C10.72 40.48 10.72 40.8 11.76 40.96L14.72 41.36C14.72 41.84 14.8 42.24 14.8 42.72L11.92 43.6C10.88 43.92 10.96 44.16 12 44.24L14.96 44.32C15.04 44.8 15.12 45.2 15.2 45.68L12.48 46.96C11.52 47.44 11.6 47.68 12.64 47.6L15.6 47.28C15.76 47.76 15.84 48.16 16 48.64L13.44 50.16C12.56 50.72 12.64 50.96 13.68 50.72L16.64 50.08C16.8 50.48 17.04 50.88 17.2 51.36L14.88 53.2C14.08 53.84 14.16 54.08 15.2 53.76L18 52.8C18.24 53.2 18.48 53.6 18.72 54L16.8 55.92C16.08 56.64 16.24 56.88 17.12 56.4L19.84 55.12C20.08 55.52 20.4 55.84 20.72 56.16L18.88 58.48C18.24 59.28 18.4 59.52 19.28 58.96L21.76 57.36C22.08 57.68 22.4 58 22.72 58.32L21.2 60.88C20.64 61.76 20.88 61.92 21.68 61.28L24 59.36C24.32 59.68 24.72 59.92 25.12 60.24L23.84 62.96C23.36 63.92 23.6 64.08 24.32 63.28L26.4 61.12C26.8 61.36 27.2 61.6 27.6 61.84L26.64 64.64C26.32 65.6 26.56 65.76 27.2 64.96L29.04 62.56C29.44 62.72 29.84 62.96 30.32 63.12L29.76 66.08C29.52 67.12 29.84 67.2 30.32 66.32L31.84 63.76C32.24 63.92 32.72 64.08 33.12 64.16L32.8 67.2C32.72 68.24 32.96 68.32 33.44 67.36L34.64 64.64C35.12 64.72 35.52 64.8 36 64.88L36.16 67.84C36.24 68.88 36.48 68.88 36.8 67.92L37.6 65.04C38.08 65.12 38.56 65.12 38.96 65.12L39.44 68.08C39.6 69.12 39.84 69.12 40.08 68.08L40.64 65.12C41.12 65.12 41.52 65.12 42 65.04L42.8 67.92C43.12 68.96 43.36 68.88 43.44 67.84L43.6 64.88C44.08 64.8 44.48 64.72 44.96 64.64L46.08 67.36C46.48 68.32 46.72 68.24 46.72 67.2L46.4 64.4C46.88 64.32 47.28 64.16 47.68 64L49.2 66.56C49.76 67.44 50 67.36 49.76 66.32L49.2 63.36C49.6 63.2 50.08 63.04 50.48 62.8L52.24 65.2C52.88 66.08 53.12 65.92 52.8 64.88L52 62.16C52.4 61.92 52.8 61.68 53.2 61.44L55.2 63.6C55.92 64.4 56.16 64.24 55.76 63.28L54.56 60.56C54.96 60.32 55.28 60 55.68 59.76L58 61.68C58.8 62.32 59.04 62.16 58.48 61.28L56.96 58.72C57.28 58.4 57.6 58.08 57.92 57.76L60.4 59.36C61.28 59.92 61.44 59.76 60.8 58.88L58.96 56.56C59.28 56.24 59.52 55.84 59.84 55.52L62.56 56.88C63.52 57.36 63.68 57.12 62.96 56.4L60.8 54.24C61.04 53.84 61.28 53.52 61.52 53.12L64.32 54.08C65.28 54.4 65.44 54.16 64.64 53.52L62.32 51.68C62.56 51.28 62.72 50.88 62.96 50.4L65.84 51.04C66.88 51.28 66.96 51.04 66.08 50.48L63.52 48.88C63.68 48.48 63.84 48 64 47.6L66.96 47.92C68 48 68.08 47.76 67.12 47.28L64.4 46C64.48 45.52 64.64 45.12 64.72 44.64L67.68 44.56C68.72 44.56 68.8 44.24 67.76 43.92L64.96 43.2C65.04 42.72 65.04 42.32 65.12 41.84L68.08 41.44ZM29.52 55.52C28.72 56.96 26.64 57.12 25.36 56.4C24.48 55.92 22.4 53.92 20.48 50.8C18.72 47.6 17.76 44 17.76 40.08C17.76 33.52 20.56 27.68 25.12 23.6C26.56 22.8 28.56 22.96 29.36 24.32L37.28 37.92C37.92 39.04 37.92 41.2 37.2 42.32L29.52 55.52ZM57.12 54.08C54.56 57.12 51.28 59.52 47.44 60.88C42.48 62.32 36 62.4 33.52 61.04C31.84 60.24 31.2 58.48 32 57.04L39.84 43.44C40.48 42.32 42.16 41.36 43.44 41.36H58.72C60.4 41.36 61.52 42.8 61.52 44.24C61.52 45.52 60.48 49.92 57.12 54.08ZM38.8 40C38.8 39.36 39.36 38.8 40 38.8C40.64 38.8 41.2 39.36 41.2 40C41.2 40.64 40.64 41.2 40 41.2C39.36 41.2 38.8 40.64 38.8 40ZM59.04 38.56H43.04C41.68 38.48 40.08 37.36 39.44 36.16L31.84 22.96C31.04 21.52 31.92 19.92 33.2 19.2C34.08 18.72 36.88 17.84 40.56 17.84C51.04 18.08 59.68 25.68 61.68 35.6C61.92 37.28 60.48 38.56 59.04 38.56Z" fill="url(#paint1_linear_1_318)"/>
<defs>
<linearGradient id="paint0_linear_1_318" x1="39.9888" y1="4.0224" x2="39.9888" y2="75.9984" gradientUnits="userSpaceOnUse">
<stop stop-color="#D3D7DD"/>
<stop offset="1" stop-color="#888C90"/>
</linearGradient>
<linearGradient id="paint1_linear_1_318" x1="39.9842" y1="11.157" x2="39.9842" y2="68.9229" gradientUnits="userSpaceOnUse">
<stop stop-color="#D9DADB"/>
<stop offset="1" stop-color="#7D8082"/>
</linearGradient>
</defs>
</svg>
